/* XPM */
static char *monkey_xpm[] = {
/* width height num_colors chars_per_pixel */
"    64    64      256            2",
/* colors */
"`` c #a4c700",
"`. c #a3c600",
"`# c #a1c500",
"`a c #a3c700",
"`b c #a6c900",
"`c c #a6c800",
"`d c #a5c800",
"`e c #a5c700",
"`f c #a8c900",
"`g c #a8ca00",
"`h c #a9ca00",
"`i c #a6c700",
"`j c #a7c900",
"`k c #a9cb00",
"`l c #aacb00",
"`m c #abcb00",
"`n c #abcc00",
"`o c #a2c500",
"`p c #a2c600",
"`q c #a3c500",
"`r c #a4c600",
"`s c #a7c800",
"`t c #a2c400",
"`u c #d6d1cd",
"`v c #accd00",
"`w c #a8cb00",
"`x c #bfafa7",
"`y c #af8f78",
"`z c #c47647",
"`A c #bd6c36",
"`B c #af6632",
"`C c #aacc00",
"`D c #accc00",
"`E c #a0c504",
"`F c #a7c901",
"`G c #a7c902",
"`H c #a3c602",
"`I c #85b51a",
"`J c #9bc109",
"`K c #90bb11",
"`L c #8ab817",
"`M c #88b717",
"`N c #9bc208",
"`O c #8dba12",
"`P c #93bd0c",
"`Q c #a0c400",
"`R c #9dc40a",
"`S c #a8ca04",
"`T c #accc01",
"`U c #aaca01",
"`V c #a2c601",
"`W c #a3c702",
"`X c #7cb121",
"`Y c #a0c505",
"`Z c #8cbb18",
"`0 c #9dc30b",
"`1 c #a1c400",
"`2 c #c88e68",
"`3 c #86b619",
"`4 c #9ac108",
"`5 c #8dba15",
"`6 c #9dc305",
"`7 c #a7ca00",
"`8 c #eb9282",
".` c #e9b288",
".. c #fbcca2",
".# c #a8ca03",
".a c #a0c300",
".b c #adcd00",
".c c #a0c509",
".d c #8eba15",
".e c #a1c606",
".f c #91bd14",
".g c #aacc01",
".h c #8d674c",
".i c #040204",
".j c #6c5a4c",
".k c #9ec300",
".l c #c7485b",
".m c #aaca00",
".n c #90bc16",
".o c #a2c70a",
".p c #9ac20a",
".q c #96be09",
".r c #7eb122",
".s c #9dc40b",
".t c #86b61b",
".u c #93bd0d",
".v c #96bf0b",
".w c #9ec306",
".x c #9ec407",
".y c #a5c802",
".z c #9fc300",
".A c #a0c402",
".B c #a4c701",
".C c #8cb912",
".D c #8cb810",
".E c #905225",
".F c #89b815",
".G c #85b618",
".H c #a6c801",
".I c #9dc307",
".J c #9ac109",
".K c #a4c800",
".L c #9dc208",
".M c #9ac20b",
".N c #9dc30a",
".O c #a5c801",
".P c #a9c900",
".Q c #8dba14",
".R c #84b41a",
".S c #96bf0d",
".T c #84b51f",
".U c #9dc409",
".V c #94be0f",
".W c #9cc207",
".X c #96bf0c",
".Y c #a2c501",
".Z c #9ec200",
".0 c #8dba17",
".1 c #8fbb12",
".2 c #97c00b",
".3 c #9ac10b",
".4 c #9bc20b",
".5 c #9fc405",
".6 c #97bf0d",
".7 c #a2c502",
".8 c #9dc204",
"#` c #79ad21",
"#. c #9dc406",
"## c #83b51e",
"#a c #9fc406",
"#b c #9fc407",
"#c c #93be14",
"#d c #a2c504",
"#e c #a5c701",
"#f c #9fc404",
"#g c #a3c601",
"#h c #81b21a",
"#i c #a2c602",
"#j c #98c00e",
"#k c #80b21c",
"#l c #7fb11e",
"#m c #98c00c",
"#n c #98c10b",
"#o c #83b41c",
"#p c #9dc206",
"#q c #a5c900",
"#r c #000000",
"#s c #000000",
"#t c #000000",
"#u c #000000",
"#v c #000000",
"#w c #000000",
"#x c #000000",
"#y c #000000",
"#z c #000000",
"#A c #000000",
"#B c #000000",
"#C c #000000",
"#D c #000000",
"#E c #000000",
"#F c #000000",
"#G c #000000",
"#H c #000000",
"#I c #000000",
"#J c #000000",
"#K c #000000",
"#L c #000000",
"#M c #000000",
"#N c #000000",
"#O c #000000",
"#P c #000000",
"#Q c #000000",
"#R c #000000",
"#S c #000000",
"#T c #000000",
"#U c #000000",
"#V c #000000",
"#W c #000000",
"#X c #000000",
"#Y c #000000",
"#Z c #000000",
"#0 c #000000",
"#1 c #000000",
"#2 c #000000",
"#3 c #000000",
"#4 c #000000",
"#5 c #000000",
"#6 c #000000",
"#7 c #000000",
"#8 c #000000",
"a` c #000000",
"a. c #000000",
"a# c #000000",
"aa c #000000",
"ab c #000000",
"ac c #000000",
"ad c #000000",
"ae c #000000",
"af c #000000",
"ag c #000000",
"ah c #000000",
"ai c #000000",
"aj c #000000",
"ak c #000000",
"al c #000000",
"am c #000000",
"an c #000000",
"ao c #000000",
"ap c #000000",
"aq c #000000",
"ar c #000000",
"as c #000000",
"at c #000000",
"au c #000000",
"av c #000000",
"aw c #000000",
"ax c #000000",
"ay c #000000",
"az c #000000",
"aA c #000000",
"aB c #000000",
"aC c #000000",
"aD c #000000",
"aE c #000000",
"aF c #000000",
"aG c #000000",
"aH c #000000",
"aI c #000000",
"aJ c #000000",
"aK c #000000",
"aL c #000000",
"aM c #000000",
"aN c #000000",
"aO c #000000",
"aP c #000000",
"aQ c #000000",
"aR c #000000",
"aS c #000000",
"aT c #000000",
"aU c #000000",
"aV c #000000",
"aW c #000000",
"aX c #000000",
"aY c #000000",
"aZ c #000000",
"a0 c #000000",
"a1 c #000000",
"a2 c #000000",
"a3 c #000000",
"a4 c #000000",
"a5 c #000000",
"a6 c #000000",
"a7 c #000000",
"a8 c #000000",
/* pixels */
"`````.`.`#`a`b`c`c`d`e```f`g`h`h`i```j`k`j`j`c`c`c`h`j`g`l`g`g`g`m`m`d`c`n`h`g`c`j`c`f`j`h`h`b`c`c`c`k`j`f`o`p`g`f`c`h`j```e`b`j",
"`c`j`.`.`q`c`g`j```r`c`c`d`g`k`s```f`g`c`j`g`g`h`g`h`l`h`s`c`j`l`h`f`j`k`c`c`j`.`j`f`j`g`l`j`j`l`j`c`d`k`h`l`c`f`#`t`j`c`c`h`f``",
"`c`l`j`c`.`d`g`f`s`c`c`j`g`g`d`c`c`e`j`.```e`g`j`g`k`s`j`j`j`u`u`u`u`t`e`o`c`b```e`c`n`n`g`g`g`l`l`v`j`g`l`l`e`c`.`.`c`c`e```d`c",
"`c`c`h`j`d`.`j`k`j`h`g`b`j`j`e`e`j`f`e`.`d`j`f`g`h`w`x`y`z`A`B`B`B`A`A`z`y`u`h`h`h`l`C`n`h`l`k`k`l`g`g`l`l`m`f`o`e`b`e```j`c`j`e",
"`h`j`j`b`j`j```b`j`j`j`g`j`l`l`b`c`l`b`e`g`h`j`h`y`A`A`A`B`B`B`B`B`B`B`A`A`A`y`u`l`j`j`g`c`j```.```g`b`g`h`j`j```.`.`c`c`j`b```.",
"`D`C`g`d`c`c`o`r`j`d`e`d`g`h`c`d`e`h`b`f`b`s`u`A`A`B`B`B`B`B`B`B`B`B`B`B`B`B`A`A`x`j`l`n`l`s`b`d`g`f`g`g`c`e`h`j`e```f`h`j`c`.`.",
"`h`h`f`l`g`.`#`c`j`c```d`j`g`E`F`G`H`d`c`p`u`B`B`B`B`B`B`B`B`B`B`B`B`B`B`B`B`B`B`A`x`n`l`l`l`C`n`l`n`k`c`e`d`c`j`c`c`e`b`e`c`e`o",
"`.`c`c`j`h`j`e```d`b`d`.`d`g`I`J`K`L`h`p`e`A`B`B`B`B`B`B`B`B`B`B`B`B`B`B`B`B`B`B`B`B`u`f`m`h`f`h`D`C`r`c`l`s`j`b`c`f`j```c`j`j`c",
"`#`b`k`c`````g`g`b`j`g`j`c`s`M`N`O`P`f`c`y`B`B`B`B`B`B`B`B`B`B`B`B`B`B`B`B`B`B`B`B`B`z`h`h`k`h`k`l`r`Q`R`S`T`U`l`l`g`l`c`c`c`b`g",
"`d`e`c`````e`f`g`k`l`g`j`h`e`F`.`V`c`c`x`A`B`B`B`B`B`B`B`B`B`B`B`B`B`B`B`B`B`B`B`B`B`A`x`n`k`h`h`g`f`W`X`Y`Z`0`D`l`l`j`c`e`e`d`j",
"`c`e`.`.`.`c`h`j`j`n`n`e`e`c`k`q`1`g```A`B`B`B`B`z`2`2`z`B`B`B`B`B`B`B`z`2`z`A`B`B`B`B`A`k`j`c`j`g`h`s`3`4`5`6`k`l`j`d```j`c`e`d",
"`c`c`b`e`.`j`7`j`j`k`n`d`c`h`l`x`8`8`y`B`B`B`B.`.........``2`B`B`B`2.`.........``A`B`B`B`y`8`8`x`n`k`c.#`G`h`j`j`c`e`g`g`g`e`e`a",
"`h`m`b```d`l`g`j`b`l`g`d`h`u`8`8`8`8`z`B`B`B.`..............`2`B`2...............``B`B`B`A`8`8`8`8`u`e`f`f`g`j`d`d`j`g`h`c`b`j`c",
"`f`h`f`j`j`c`j`s`c`7`j`s`f`8`8`8`8`2`B`B`B`2...................`...................``B`B`B`2`8`8`8`2`c`i`g`c`1.a`.`f`f`c`j`h`h`j",
".b.c.d`h`````j`c`e`c`h`j`x`8`8`8`8`z`B`B`A..........................................`A`B`B`z`8`8`8`8`x`c`e```e`k`g```g`f`k`l`j`b",
"`h.e.f`g`e`e`c`e`d`e`j`c`8`8`8`8`8`A`B`B`2..........................................`2`B`B`A`8`8`8`8`8`c`c`c`f```b`e`e`n`g`h`c`h",
".g`D`f`d`7`g`j`c`````l`u`8`8`8`8`8`B`B`B.`...........................................``B`B`B`8`8`8`8`8`u`h`c```d`c`h`7`c`l`b`d`g",
"`j`j`e`j`c`l`c```k`j`f`x`8`8`8`8`8`B`B`B.`.........h.i`y..............`y.i.h..........`B`B`B`8`8`8`8`8`x`b`a`.`.`c`k`l`c`h`.`r`d",
"`c`f`j`d`j`k`f`f`j`j`g`x`8`8`8`8`2`B`B`A...........h.i.h..............`y.i.j..........`z`B`B`z`8`8`8`8`2```o```.`e`k`g`s`b`b`.`d",
"`g`h`f`7`c`c`c`h`j`k`l`x`8`8`8`8`2`B`B`A.............`...................`............`z`B`B`2`8`8`8`8`y`f.k`Q`d`e`f`j`b`````.`c",
"`j`c`b`j`g`k`k`h`k`g`b`x`8`8`8`8`2`B`B`A..............................................`z`B`B`2`8`8`8`8`x`o`#`.`.`e`f`C`e`e`a`.`.",
"`c`.`r`d`g`j`j`g`b`c`j`u`8`8`8`8`8`B`B`A....................`z.l.`.................`..`z`B`B`8`8`8`8`8`u`e`d`c`g`f`g`h`f`j`d`d`.",
"`d`.`d`f`g`k`l`h`c`j`j`b`x`8`8`8`8`B`B`B.`..................`8`z.`.............`.`....`z`B`B`8`8`8`8`2`r`.`o`#`d.m.n.o.p.q`e`d`d",
"`j`e`f`h`j`h.b`l`g`c`b`b`g`2`8`8`8`z`B`B.`.....................`......................`A`B`A`8`8`8`8`j`.`#`j`.`o`e.r.s.t.u`j`e`c",
"`c`j`c`c`j`b`e`d`d`e`b`f`l`l`x`8`8`8`B`B.`...................`.`.....................``B`B`8`8`8`x`f`j`c`c`d`d`g`f.v.w.x.y`d`f`h",
"`c`e`.`.`o```.`o`e`d`.`f`k`j`g`j`u`x`z`B.`...................`.`.....................``B`z`x`u`h`e`f`g`g`j`j`s`j`c`c`j`h`h`f`k``",
"`````e`````````.`c`b```C`k`j`g`g`l`h`u`B`2..............`8.....`...`.`..............`2`B`u`.`.`j`f`c`j`j`e`d`g```.`.`.`j`.`c`d`#",
"`c`c`o`o`.```d`b`j`i`l`k`c`l`n`n`g`h`c`x`z...............l.l`2`2`2.l`z..............`2`x`c`c```j`d```e`j`h`o```j`f`g`o`Q`.`h`o`o",
"`d`c`.`.```j`j`c`j`e`s`j`e`c`k`b`.`d`j`c`x.`..............`8.l.l.l`8................`x```b`j`k`f`r`d```d`g`c`.`j`k`j`.`Q`o`e`e`c",
"`e`r`b`c`d`j`f`j`f`e`j`d`g`g`c```j`c```e`r`u......................................`u`j`c```j`j`c`e`d`7`j`.```d`b`c`o`.`.`Q`.```d",
"`e`.```e`d`#`o`c`d`r`d`c`d```a`c`d`#```d`e```k`x..............................`x`l`b`c`j`g`j`c`j`k`j`a```c`c`b`d`c`p.z`.`.`Q.A.B",
"`d`c```.`p`#`.`c`e`o`Q`d```.```a`p`c`.`c`.`o`h`C`u`2`2.`...............``2`2`x`7`l```f`b`k`r`.`g`c`d`j`.`d`s`d`s`d`j```r`.`..C.D",
"`f`f`.`p`1`Q`d`j`c`c`j`j`r`.`g```1`s`i`e`.`e`.`x`A`B.E.E.E`B`B`B`B.h.E.E.E`B`A`y`d`d`f```g`e`.`h`c`.`l`k`f`g`g`j`k`g`k`h```s.F.G",
"`c`j```c```p`j`g`d`c`e.H`d`q`b`f```b`b`.```j`x`A`B`B`B`B.E.E.E.E.E.E.E`B`B`B`B`A`y```f`l`l`s`c`c`k`g`s`g`m`l`D`e`j`h```f`d`h.I.J",
"`.```e```p`j`j`g`g```f`h`f`g`7`l.K`c`c`b`j`x`A`B`B`B`B`B`B`B`B`A`B`B`B`B`B`B`B`B`A`y`l`g`c`e`.`r`h`l`f`f`h`l```Q`i`f`f`j`g`j`e`d",
"`d`c`h`g`h`l`l`h`k`h.L.M.B.N`g`l`j`.`d`j`x`A`B`B`B`B`B`B`B`8.....`.``z`B`B`B`B`B`B`A`y`c`h`j`j```g`k`j`b`j```Q`g`l`j`h`j`````#`#",
"```.`j`m`n`l`n`l.O.P.Q.R.S.T`m`d`c```r`u`A`B`B`B`B`B`B`A.`............`2`B`B`B`B`B`B`A`y`C`l`h`c`j`j`j`d`r```l`g```f`j`d`o`q```#",
"`.`d`7`g```j`k`j`c`s.U.V.W.X`g`h`c`g`u`z`B`B`B`B`B`B`B.`................`2`B`B`B`B`B`B`A`x`g`e`s`c`l`b`e`g`s`g`g`e`g`j`g`d``````",
"`j`l`h`g`g`h`j`c`k`g`k`f`c`c`C`v`g`g`z`B`B`B`B`B`B`B`z....................`B`B`B`B`B`B`B`A`u`c`e`c`l`g`j`g`j`g`l`k`n`l`n`h`d`c`f",
"`l`j`f`j`e`o`r`j`g`g`c`F`j`c`D`b`d`y`A`B`B`B`B`B`B`B.`....................`2`B`B`B`B`B`B`B`B`g`g`b`j`c`g`b`h`l`h`g`h`n`m`e`e`C`f",
"`b`d`j`c`1`.`e`j`h`d`g.m`g`j`e`u`y`A`B`B`B`B`B`B`B`B.`.....................``B`B`B`B`B`B`B`A`y`u`f`f`g`h`l`h`j`d`j`k`h`j`j`h`c`b",
"`g`c`r```b`h`f```j`k`h`l`j`j`x`z`B`B`B`B`B`B`B`y`B`A.......................``B`z`A`B`B`B`B`B`B`A`y`g`l.m`j`b`j`j`g`C`j`Q`o`c`o`c",
"`b`d`g`j`j```c`b`d`l`h`h`c`h`u`B`B`B`B`B`B`A`x`x`A`A.......................``B`z`u`z`B`B`B`B`B`B`x`g`e`c`c`c`j`j`c`c`d`j`o`c`f`b",
"`.`r`g`d`.`d`c`h`h`c`l`e`e`g`x`B.E`B`B`B`A`x`j`y`A`A.......................``B`z.Y`u`z`A`B`B.E`B`y`c`j`g`j`C`k`j`c`o`.`j`d`d```b",
"`j`e```.```p`d`l`l`j`f```.`e`y`B`B.E`B`z`u`d`j`x`A`B.`....................`2`B`z`q`i`d`y`A.E.E`B`B`j`j`d`c`l`g`j`j`j`b`d`e`f`l`l",
"`.```c`#`.```c`k`j`c`d`c```s`x`z`B`A`z`u`j`j`h`x`A`B.`....................`z`B`z`g`s`c`d`y`A`A`A`z`e`1`r`k`f`c`j`i`j`g`c`s`h`h`g",
"`c`s`s.Z`Q```e`j`g`j`.`.`.`````x`y`x.0.1`f`F`f`y`A`B`z..................`8`B`B`z`d`````e`d`u`y`y`b`.`e`j`b`h`s`b`c`j`l`f`k`g`c`d",
"`c`.`1`r`e`d`c`j`l`d`c```.`p`e`l.2.3.4.5`r```c`x`A`B`B`2...............``B`B`B`B`#`.`e`.`.`u`x`````e`j`j`j`h.P`h`j`f`h`j`f`m`g`d",
"`#`.`c`c`j`j`c`b`h`c`r`d`c`e`d`j`l`k`h`j`b`h`d`x`A`B`B`B`z.`.`...`.``z`B`B`B`B`z`Q`1`7`r`u.E`B`y`r`d`e`j`h`j`c`j`h`k`j`j`l`h`e`c",
"`r`1`c`e`c`d`d`b`d`````r```c`r`1.B`e`````c`f`c`x`A`B`B`B`B`B`B`A`B`B`B`B`B`B`A`y`b`s`c`d.h.E.E`x`d`j`e`j`l`j`h`j`s`e`j`g`b`b`b`Q",
"`h```Q`c`h`j`7`g`h`c`c`e`r`.`o`1`d`c`j`r`o`j`j`x`A`B`B`B`B`B`B`B`B`B`B`B`B`B`B`B`x`u`u.h.E.E.E`c`c`b`e`d```.`d`7`j`d`c`e`d`j``.k",
"`h`g`e`f`h`e`d`l`g`f`g`c`o`p.z`p`e```e`b`f`g`c`x`z`B`B`B`B.E.E`B.E.E`B`B`B`B`B`B.E.E.E.E.E.E`x`c`b`p`c`Q`1`r`l`l`j`c`i`r`c`c`..z",
"```e`s`f`e`c`j`g`j`c`j`d```c`o`e`e`c`.`e`k`f`g`x`A`B`B`B`B`B.h`x`y`B`B`B`B`B`B`B.E.E.E.E.E`y`h`g`b`h`c`.`f`l`g`j`g`b`e`d`d`c`r`o",
"`e```.```j`j`h`j```r`.`e`e`p`a`c```j`l`n`g`h`e`u`A`B`B`B`B`A`y`s`x`z`B`B`B`B`B`y`y`y`y`x`u`D`n`l`h.6.7`H`d`j`c`b`g`````.```j`d``",
"`a```d`j`c`d`j`c`e`d`e`f`h`d`g`j`e`b`v`j`g`.```u`A`B`B`B`B`A`y`p`u`A`B`B`B`B`A`y`l`g`k`l`h`n`j`#.8#`#.###a`1`.`h`.`o.z`1`e```j`j",
"`c`b`l`f`b`f`h`j`.`.`````h`g`l`j`g`d`g`h`j`j`b`u`B`B`B`B`B`A`x`j`e`A`B`B`B`B`A`y`g`b`j`j`k`g`.`Q`V`5#b#c#d`Q.Z`c`.`Q.z```e`c`c``",
"`k`k`k`h`j`c`j`j`c`.`.`.`d`s`j`j`.`.`c`g`e`g`j`u`B`B`B`B`B`A`u`g`l`z`A`B`B`B`A`x`e`b`d`c`c`h`c`Q```h`h`h`l`j`e`e`d`o`d`d`c`h`c`e",
"`g`n`h`j`c`c```o`H`c#e#f`a```f`l`o`#`c`h`h`j`j`g`B`B`B`B`B`B`l`k`j`y`A`B`B`B`A`x`f`f`j`d`b`c`e`e`c`c`````b```o`s`.`e`.`r`c```d`h",
"`j`g`d```c`e`.#g#h#i#j#k`c`p`g`c```c`f`h`c`g`g`g`A`B`B`B`B`z`j`n`D`x`z`B`B`B`A`u`v`k`h`g`d`.`j`7`d```````.`d`.`d```.`e`j`d`d`f.z",
"`s`j`d`f`Q```j`j#l#m#n#o`f`d`n`o`p```e`b`f`j`s`x`A`B`B`B`z`y`h`g`h`u`z`B`B`B`B`z`n`l`c`s`h`d`c`r`````r`e`j`7`j`c`b```c`l`g`l`l`c",
"`h`j`b`l`#`.`b`c`W#i.B#p```b`f.a`e`.`o`d`j`e`j`x`z`B`A`A`z`u`g`j`j`g`y`A`B`B`A`y`d`c`d`d`h`c`d`r`1`e`j`k`k`h`g`g`c`c`.`d`g#q`c`l",
"`g`l`g`h`g`g`r`h`c`.`c`c```h`o```c`o`.`b`b`j`k`h`n`u`u`u`f`f`l`k`v`C`g`v`u`u`u`c`d`h`f`k`c`e`e`c`d`e`g`g`g`b`j`j`c`e`b`f`f`d`k`c",
"```f`b```f`k`e`e`d```d`j`d```o`o```c`e```c`k`l`b`.`k`n`n`l`D`n`g`n`n`g`k`g`g`d`e`c`c`.`j`f`k`l```d`h`l`h`s`j`j`h`j```c```o```g`j",
"`j`f`e`h`g`c`c`.`c`j`.```g`e`c`Q```g`j`d`j`l`k`k`g`j`g.b`n`n`j`h`k`g`j`f`c`f`h`.`c`r`e`q`c`j`l```g`n`k`j`f`c`g`C`c`j`c`.`c`s`d`j"
};
