/* XPM */
static char *sea_xpm[] = {
/* width height num_colors chars_per_pixel */
"    64    64      256            2",
/* colors */
"`` c #6cb2ec",
"`. c #8cc2ec",
"`# c #74beec",
"`a c #94cef4",
"`b c #84beec",
"`c c #7cbeec",
"`d c #a4cef4",
"`e c #6cbaec",
"`f c #8ccaf4",
"`g c #84c6ec",
"`h c #74c2ec",
"`i c #9cd6fc",
"`j c #7cc2ec",
"`k c #a4d6f4",
"`l c #74b6ec",
"`m c #8cc6ec",
"`n c #9ccef4",
"`o c #84c2ec",
"`p c #a4d2f4",
"`q c #74baec",
"`r c #6cb6ec",
"`s c #74bef4",
"`t c #7cbef4",
"`u c #94caf4",
"`v c #84c6f4",
"`w c #74c2f4",
"`x c #7cc2f4",
"`y c #8cc6f4",
"`z c #9cd2f4",
"`A c #84c2f4",
"`B c #a4d2fc",
"`C c #74baf4",
"`D c #000000",
"`E c #000000",
"`F c #000000",
"`G c #000000",
"`H c #000000",
"`I c #000000",
"`J c #000000",
"`K c #000000",
"`L c #000000",
"`M c #000000",
"`N c #000000",
"`O c #000000",
"`P c #000000",
"`Q c #000000",
"`R c #000000",
"`S c #000000",
"`T c #000000",
"`U c #000000",
"`V c #000000",
"`W c #000000",
"`X c #000000",
"`Y c #000000",
"`Z c #000000",
"`0 c #000000",
"`1 c #000000",
"`2 c #000000",
"`3 c #000000",
"`4 c #000000",
"`5 c #000000",
"`6 c #000000",
"`7 c #000000",
"`8 c #000000",
".` c #000000",
".. c #000000",
".# c #000000",
".a c #000000",
".b c #000000",
".c c #000000",
".d c #000000",
".e c #000000",
".f c #000000",
".g c #000000",
".h c #000000",
".i c #000000",
".j c #000000",
".k c #000000",
".l c #000000",
".m c #000000",
".n c #000000",
".o c #000000",
".p c #000000",
".q c #000000",
".r c #000000",
".s c #000000",
".t c #000000",
".u c #000000",
".v c #000000",
".w c #000000",
".x c #000000",
".y c #000000",
".z c #000000",
".A c #000000",
".B c #000000",
".C c #000000",
".D c #000000",
".E c #000000",
".F c #000000",
".G c #000000",
".H c #000000",
".I c #000000",
".J c #000000",
".K c #000000",
".L c #000000",
".M c #000000",
".N c #000000",
".O c #000000",
".P c #000000",
".Q c #000000",
".R c #000000",
".S c #000000",
".T c #000000",
".U c #000000",
".V c #000000",
".W c #000000",
".X c #000000",
".Y c #000000",
".Z c #000000",
".0 c #000000",
".1 c #000000",
".2 c #000000",
".3 c #000000",
".4 c #000000",
".5 c #000000",
".6 c #000000",
".7 c #000000",
".8 c #000000",
"#` c #000000",
"#. c #000000",
"## c #000000",
"#a c #000000",
"#b c #000000",
"#c c #000000",
"#d c #000000",
"#e c #000000",
"#f c #000000",
"#g c #000000",
"#h c #000000",
"#i c #000000",
"#j c #000000",
"#k c #000000",
"#l c #000000",
"#m c #000000",
"#n c #000000",
"#o c #000000",
"#p c #000000",
"#q c #000000",
"#r c #000000",
"#s c #000000",
"#t c #000000",
"#u c #000000",
"#v c #000000",
"#w c #000000",
"#x c #000000",
"#y c #000000",
"#z c #000000",
"#A c #000000",
"#B c #000000",
"#C c #000000",
"#D c #000000",
"#E c #000000",
"#F c #000000",
"#G c #000000",
"#H c #000000",
"#I c #000000",
"#J c #000000",
"#K c #000000",
"#L c #000000",
"#M c #000000",
"#N c #000000",
"#O c #000000",
"#P c #000000",
"#Q c #000000",
"#R c #000000",
"#S c #000000",
"#T c #000000",
"#U c #000000",
"#V c #000000",
"#W c #000000",
"#X c #000000",
"#Y c #000000",
"#Z c #000000",
"#0 c #000000",
"#1 c #000000",
"#2 c #000000",
"#3 c #000000",
"#4 c #000000",
"#5 c #000000",
"#6 c #000000",
"#7 c #000000",
"#8 c #000000",
"a` c #000000",
"a. c #000000",
"a# c #000000",
"aa c #000000",
"ab c #000000",
"ac c #000000",
"ad c #000000",
"ae c #000000",
"af c #000000",
"ag c #000000",
"ah c #000000",
"ai c #000000",
"aj c #000000",
"ak c #000000",
"al c #000000",
"am c #000000",
"an c #000000",
"ao c #000000",
"ap c #000000",
"aq c #000000",
"ar c #000000",
"as c #000000",
"at c #000000",
"au c #000000",
"av c #000000",
"aw c #000000",
"ax c #000000",
"ay c #000000",
"az c #000000",
"aA c #000000",
"aB c #000000",
"aC c #000000",
"aD c #000000",
"aE c #000000",
"aF c #000000",
"aG c #000000",
"aH c #000000",
"aI c #000000",
"aJ c #000000",
"aK c #000000",
"aL c #000000",
"aM c #000000",
"aN c #000000",
"aO c #000000",
"aP c #000000",
"aQ c #000000",
"aR c #000000",
"aS c #000000",
"aT c #000000",
"aU c #000000",
"aV c #000000",
"aW c #000000",
"aX c #000000",
"aY c #000000",
"aZ c #000000",
"a0 c #000000",
"a1 c #000000",
"a2 c #000000",
"a3 c #000000",
"a4 c #000000",
"a5 c #000000",
"a6 c #000000",
"a7 c #000000",
"a8 c #000000",
/* pixels */
"`q`#`q`s`c`q`q`q`C`c`q`c`q`q`q`q`s`q`q`#`l`q`q`C`q`q`l`r`l`l`e`l`q`q`l`q`r`q`q`s`#`#`q`q`q`t`#`q`l`q`s`c`c`#`c`t`#`q`#`#`q`q`q`q",
"`t`#`s`q`s`q`s`c`#`q`c`s`c`q`q`C`q`q`q`C`#`s`q`e`q`e`q`q`q`s`q`#`s`#`#`q`s`q`s`q`q`C`s`t`#`q`q`s`e`q`#`s`c`q`x`#`q`s`l`q`e`s`#`s",
"`x`c`q`s`q`q`q`q`e`C`x`#`q`s`q`e`q`q`q`#`q`e`q`e`C`q`r`q`e`q`q`s`c`q`C`q`q`#`#`C`q`q`q`#`s`#`C`q`#`s`q`t`#`t`#`q`s`q`#`C`#`#`C`#",
"`c`s`#`c`y`.`f`v`m`g`c`s`q`q`q`l`C`q`s`q`s`l`t`o`y`y`f`y`m`y`A`c`q`C`q`s`q`s`#`t`q`s`q`q`q`s`#`s`#`t`#`q`#`s`#`s`q`#`s`#`s`#`q`s",
"`c`s`q`A`p`p`z`p`p`B`o`q`q`s`q`C`e`q`q`s`c`r`g`k`z`p`p`z`d`i`a`#`s`#`#`q`s`#`#`#`e`q`e`C`q`q`q`#`q`q`s`s`q`q`q`s`#`q`#`q`#`C`c`q",
"`q`q`q`#`A`o`A`v`m`A`c`#`C`#`q`s`q`q`C`#`C`#`t`A`b`j`j`c`j`c`c`s`c`j`s`q`q`q`q`q`q`q`r`q`q`r`C`q`e`C`#`q`q`q`q`q`C`q`C`t`q`#`q`s",
"`q`s`x`#`s`#`q`q`s`r`s`q`q`s`l`e`e`q`C`e`r`q`q`q`s`t`#`t`C`q`q`x`c`s`c`C`#`C`#`q`s`q`r`q`r`C`q`#`q`o`o`v`v`v`A`c`#`s`q`q`q`C`#`q",
"`#`#`C`#`q`s`q`#`s`#`q`C`q`C`x`o`c`x`o`o`A`#`#`l`q`#`q`#`s`q`s`#`#`t`q`#`s`#`#`s`q`q`q`s`#`s`q`q`A`z`d`z`d`p`p`f`#`q`q`C`q`q`C`s",
"`s`q`q`q`q`q`q`#`C`q`q`#`q`c`z`n`z`p`n`z`z`b`C`e`q`C`q`q`q`t`q`s`c`C`s`c`#`s`q`#`s`#`q`#`s`q`q`q`t`x`A`o`A`o`A`#`q`s`C`q`C`q`q`q",
"`q`q`q`l`C`q`q`s`q`q`q`C`q`e`b`v`o`f`y`y`u`t`s`t`s`#`t`t`s`#`q`s`#`t`#`s`q`q`q`C`q`s`#`C`q`q`q`s`#`q`r`C`r`e`q`s`c`C`q`s`#`s`q`q",
"`t`#`C`q`e`q`q`q`q`r`l`e`q`s`r`q`C`#`C`#`q`c`q`#`c`s`c`#`c`s`t`c`q`t`q`t`#`q`q`q`q`q`q`#`q`s`q`t`q`q`q`q`q`s`q`t`s`#`q`x`#`q`s`s",
"`#`q`q`e`C`s`q`r`C`q`q`r`l`s`q`s`c`t`c`s`c`C`t`s`q`#`C`#`C`q`q`s`q`q`q`s`t`t`t`q`q`C`q`s`#`t`t`q`s`q`q`q`s`q`q`q`s`q`l`s`s`q`s`q",
"`q`C`#`q`q`#`q`s`q`q`r`l`r`q`s`q`q`c`s`c`q`q`s`c`s`c`s`c`q`t`t`c`C`#`t`c`#`c`s`#`C`#`q`C`#`t`#`q`r`q`q`C`q`C`q`#`q`s`q`q`q`q`q`q",
"`#`s`q`s`s`c`s`j`C`q`C`C`r`q`q`C`q`c`#`C`#`q`#`s`q`t`#`C`q`t`#`t`#`t`q`s`t`s`c`s`#`s`q`q`C`#`C`q`q`r`s`#`q`#`C`q`C`#`s`q`q`q`C`q",
"`#`s`q`q`q`w`#`q`q`r`q`q`r`C`q`#`#`t`q`q`q`q`q`#`t`#`q`c`#`s`#`C`q`q`q`q`q`q`s`c`q`q`q`C`#`q`c`s`#`t`q`q`w`C`q`q`q`C`q`C`q`r`q`s",
"`q`q`q`q`s`q`q`r`r`q`r`q`l`r`s`q`s`c`#`q`s`l`q`#`t`q`t`q`q`s`#`q`q`q`q`r`q`C`q`l`C`#`q`q`s`c`s`c`s`C`q`C`#`t`q`C`q`s`#`C`q`q`C`c",
"`q`C`q`C`l`r`q`l`q`l`q`r`C`q`q`q`q`t`c`s`c`C`q`q`s`#`t`#`q`#`q`q`q`C`q`q`q`q`C`r`#`C`q`#`#`s`q`s`q`l`#`q`C`t`s`q`q`C`c`q`C`q`q`s",
"`q`C`q`s`#`q`r`q`C`r`q`r`l`s`c`q`q`#`t`#`l`#`r`q`s`q`q`s`#`C`#`C`e`q`q`s`C`q`q`q`q`q`r`q`s`q`C`q`q`s`s`t`q`q`q`q`s`q`C`q`q`q`s`q",
"`q`s`#`q`s`q`C`#`q`q`r`r`q`#`C`q`q`q`#`c`s`C```s`q`q`s`c`q`r`l`q```r`q`s`q`q`e`l`e`C`#`q`q`q`q`q`C`q`q`#`#`q`C`e`q`s`#`C`q`q`e`q",
"`C`q`q`q`#`s`q`q`C`#`l`q`s`#`#`C`e`#`C`x`#`x`q`q`q`C`q`q`s`q`q`C`q`q`q`#`q`s`C`q`q`C`s`q`C`q`C`q`q`c`#`t`s`#`q`C`q`q`C`#`s`C`q`C",
"`q`r`q`#`C`C`q`C`q`C`#`C`#`q`s`q`q`q`q`q`q`s`q`q`l`#`t`q`#`C`#`q`s`q`s`c`t`c`q`C`q`q`#`q`C`q`q`e`C`q`C`#`t`q`C`c`s`q`q`q`q`q`t`#",
"`q`q`q`C`q`q`#`q`#`C`q`q`r`s`l`r`r`q`q`C`q`q`l`e`s`q`q`s`q`#`q`q`q`q`s`q`s`r`r`q`C`s`c`v`y`v`A`v`g`A`o`q`q`C`#`q`#`q`q`C`l`#`s`c",
"`s`#`C`q`q`s`q`l`s`#`s`q`l`q`e`l`C`q`s`q`q`e`s`q`q`s`#`q`C`q`s`l`C`#`q`s`q`q`e`r`q`q`f`k`p`n`p`n`p`n`z`A`q`#`t`s`#`q`C`q`q`q`q`s",
"`q`q`s`q`C`c`s`#`l`r`#`s`q`q`q`q`e`C`q`C`q`C`q`s`s`c`s`q`q`#`q`q`q`C`q`s`q`C`q`r`q`q`c`m`f`u`m`u`u`y`f`c`C`q`q`t`#`s`#`C`q`s`c`C",
"`t`#`q`q`#`C`q`s`r`l`l`q`q`q`e`l`q`q`q`q`q`q`l`r`q`q`#`s`q`q`q`C`#`s`s`#`q`q`q`q`r`q`s`q`q`q`C`q`q`#`q`q`q`s`c`s`q`q`C`q`q`q`s`j",
"`#`t`#`t`s`#`q`q`q`q`#`s`t`q`C`q`e`C`q`r`q`r`s`#`q`s`q`#`s`q`s`q`s`#`c`t`q`q`q`C`r`#`q`t`#`C`q`q`#`q`#`#`q`#`s`#`q`r`q`#`C`#`t`c",
"`q`q`t`#`q`q`s`#`s`x`t`#`q`C`q`q`q`q`C`q`r`q`q`C`q`s`#`q`s`t`c`q`#`C`#`C`s`s`#`q`q`#`q`l`C`#`q`e`s`s`s`s`s`#`q`t`q`s`q`C`q`s`q`s",
"`q`C`#`s`#`s`t`q`q`q`s`q`q`#`C`q`C`e`q`r`q`r`q`l`q`q`s`#`q`s`#`t`q`s`c`#`c`q`l`q`s`t`#`#`t`#`x`t`#`q`#`c`#`q`q`C`q`q`q`q`s`q`q`l",
"`q`q`C`q`C`c`q`e`q`#`q`q`q`r`s`q`q`q`r`C`q`q`e`q`C`q`s`#`q`#`s`#`c`#`C`t`q`r`q`q`s`#`t`s`c`#`#`t`#`t`q`t`q`q`s`#`q`q`s`q`q`l`q`r",
"`q`C`q`#`s`c`C`q`q`s`s`#`s`q`q`s`q`s`q`l`q`s`q`t`#`C`#`q`s`#`#`s`C`#`q`s`q`r`C`s`#`t`#`t`s`t`#`t`#`t`#`s`#`s`c`s`#`q`q`C`q`C`q`q",
"`r`q`s`q`q`s`#`C`q`q`s`q`#`C`q`q`q`#`s`q`q`#`s`c`s`c`q`q`#`C`q`#`#`C`q`q`#`s`q`l`#`t`q`#`c`C`#`q`s`#`q`q`q`q`s`#`q`q`s`q`s`q`q`s",
"`q`q`q`r`s`q`#`C`#`#`q`q`C`q`C`s`r`r`q`s`q`q`l`C`q`q`t`q`r`s`q`C`q`q`r`r`q`q`q`r`q`C`#`q`s`q`#`t`#`C`q`t`s`c`#`t`#`q`C`q`q`#`q`q",
"`q`e`s`q`c`s`q`C`q`q`q`q`s`q`q`#`r`l`q`q`C`q`#`q`#`t`#`C`q`C`q`q`l`r`C`c`y`f`m`y`f`g`y`y`c`q`C`t`t`c`s`q`#`t`#`#`C`s`#`C`q`s`#`q",
"`q`C`c`q`q`C`r`l`q`s`q`C`q`#`t`#`s`q`q`#`q`C`q`q`C`q`e`l`q`q`C`q`s`#`l`v`p`n`B`p`z`p`n`p`A`#`t`#`q`s`c`q`q`s`t`x`q`q`#`q`q`s`q`s",
"`s`#`C`s`#`c`q`r`q`q`q`C`c`t`#`c`s`q`s`C`q`q`q`q`#`C`q`q`C`#`#`C`c`s`#`c`x`y`g`f`y`u`f`f`c`e`s`t`h`#`C`r`c`s`c`q`s`#`l`C`r`q`q`q",
"`#`t`c`q`t`q`q`C`#`C`q`q`q`s`#`q`q`q`#`q`q`s`q`s`s`c`q`q`#`s`c`C`#`l`q`q`r`#`C`e`q`q`q`r`l`q`q`q`#`C`q`q`#`c`q`q`#`s`q`q`s`s`q`C",
"`t`s`#`C`q`s`q`q`q`q`C`#`q`q`t`q`q`#`s`#`C`#`#`#`C`s`s`q`C`q`l`q`q`C`q`q`s`s`q`q`q`#`t`e`q`q`s`q`q`#`q`#`s`s`q`e`C`q`s`q`q`s`q`q",
"`#`c`C`c`x`c`e`e`C`q`#`t`s`q`#`C`s`q`t`q`q`s`t`q`#`c`q`C`q`C`q`C`q`q`s`q`q`#`q`C`#`C`#`s`#`s`q`q`e`q`#`s`q`q`C`q`q`s`q`q`q`q`s`q",
"`t`C`q`q`s`#`C```#`s`q`s`#`q`c`t`q`C`q`q`C`#`t`#`q`C`#`#`q`q`s`q`q`e`l`q`s`C`q`q`C`q`q`q`q`s`l`q`C`l`s`l`l`q`q`q`s`q`q`s`#`q`#`t",
"`#`c`#`s`#`s`c`q`q`r`q`#`q`C`q`e`q`q`C`q`q`s`t`#`q`s`c`s`#`C`#`q`q`q`C`q`q`q`e`s`q`q`q`s`q`l`#`s`q`r`q`q`s`q`q`q`#`s`c`s`t`t`#`#",
"`#`C`c`s`#`t`w`c`q`q`q`C`q`C`q`q`C`q`e`q`q`#`#`C`#`q`q`s`q`q`q`s`q`s`#`C`q`q`q`C`q`q`C`q`e`q`#`q`r`l`r`q`e`C`s`#`s`j`s`q`q`#`t`s",
"`#`q`q`q`t`#`s`s`q`q`q`q`s`q`q`C`q`r`q`C`q`s`c`s`c`#`l`q`#`C`#`#`s`q`t`q`#`s`#`q`s`q`l`q`s`q`C`q`q`e`r`q`l`#`C`#`#`C`q`c`s`c`#`c",
"`t`q`s`c`s`q`q`q`C`q`e`C`q`C`e`q`r`q`q`q`q`q`t`j`w`#`s`c`s`c`s`q`q`q`q`#`q`s`q`C`t`q`s`q`#`q`s`#`s`q`l`e`q`q`q`C`q`q`s`#`s`#`C`#",
"`c`s`c`s`c`q`C`q`q`#`C`q`#`q`q`q`q`C`q`r`q`q`s`t`#`c`s`#`c`#`c`t`s`c`C`#`C`#`q`q`q`s`q`t`t`w`q`#`q`#`C`q`C`q`r`q`q`s`c`C`q`#`q`C",
"`#`c`#`c`r`q`t`#`t`#`#`C`q`C`#`s`q`q`C`q`C`#`#`#`t`#`q`s`q`t`#`#`q`C`#`t`#`t`q`e`q`s`#`C`#`l`q`s`c`C`#`q`q`q`C`q`q`C`#`s`c`C`s`q",
"`s`c`C`q`C`#`s`c`s`t`t`q`q`q`#`#`C`q`#`s`t`q`q`c`q`t`#`s`#`s`c`C`c`q`q`q`q`t`s`q`#`s`q`q`l`q`#`q`s`l`l`e`r`l`q`s`#`q`q`q`s`q`q`C",
"`#`C`#`t`q`s`q`q`q`#`q`s`q`q`C`#`q`s`C`q`q`C`c`s`#`#`t`q`#`t`q`t`s`s`t`s`t`q`t`#`q`c`C`q`s`#`s`q`c`#`q`q`l`e`q`q`t`q`C`q`q`q`C`#",
"`q`q`q`C`q`#`s`q`C`q`#`s`#`q`#`x`s`q`q`C`s`q`#`s`c`s`c`#`c`s`t`#`c`#`q`c`q`e`#`s`#`C`#`s`#`#`c`s`t`#`C`#`s`#`s`q`s`#`#`q`C`q`q`C",
"`s`r`l`r`q`q`q`q`r`q`#`C`#`s`q`s`l`q`q`q`#`l`q`q`q`q`q`t`t`j`s`c`q`C`c`C`#`t`#`t`#`q`s`#`q`t`q`c`s`q`q`s`q`q`q`r```l`q`s`q`s`q`q",
"`q`l`e`C`q`q`C`q`q`s`q`#`t`#`c`q`q`#`q`#`s`q`C`s`t`s`c`#`s`#`#`s`q`q`s`#`q`#`s`c`s`t`#`#`s`q`s`s`q`q`q`q`q`#`q`e`q`q`#`s`#`q`C`s",
"`q`q`q`q`q`C`#`C`q`#`t`#`C`q`C`s`t`s`q`q`s`q`s`#`q`t`c`#`c`q`t`#`q`q`C`#`C`q`#`s`#`q`q`C`#`t`#`q`q`q`l`s`q`s`l`s`t`#`s`q`q`s`q`q",
"`C`q`r`q`C`q`q`q`q`q`s`#`C`q`q`#`#`#`C`q`q`q`q`C`#`q`x`s`c`s`x`q`r`q`r`l`q`s`q`t`#`C`q`#`s`#`#`l`q`C`q`q`C`q`q`#`q`s`q`q`s`q`q`#",
"`#`C`q`r`q`q`r`r`C`#`#`q`#`q`q`C`C`q`q`s`s`s`q`q`q`l`C`c`w`c`q`q`e`q`q`C`q`q`q`q`C`#`l`q`#`q`#`s`s`q`t`s`q`q`s`x`#`C`q`C`q`q`q`s",
"`C`q`C`#`q`C`l`r`q`q`s`C`q`r`q`q`q`C`#`q`l`q`q`e`l`q`r`q`#`C`e`q`s`#`q`q`e`l`C`q`q`l`C`#`s`q`C`q`c`#`#`c`C`#`q`q`q`q`q`q`q`s`#`#",
"`q`q`q`s`#`q`C`q`s`q`#`q`q`q`q`C`#`#`s`q`C`#`s`#`C`q`C`q`q`q`s`q`s`q`r`q`q`r`q`q`e`C`q`q`c`s`c`q`C`c`s`q`s`s`#`C`q`C`#`C`#`t`q`q",
"`s`q`q`s`q`r`r`l`q`#`x`C`r`q`q`r`q`l`q`q`C`#`s`#`C`q`q`q`C`#`C`#`q`l`q`l`s`q`q`C`q`q`q`C`#`q`q`C`#`C`#`C`q`l`q`#`s`q`q`q`q`q`q`e",
"`q`q`q`q`q`q`q`e`C`q`q`#`q`C`s`q`q`C`e`C`q`q`q`q`q`q`s`q`r`l`q`q`l`C`q`C`q`r`q`C`q`q`q`q`l`C`#`q`s`q`q`q`r`r`q`s`t`q`q`C`C`#`C`#",
"`q`C`C`#`C`s`s`q`q`q`q`s`q`s`q`q`q`e`q`s`s`q`q`q`s`q`s`t`#`l`e`q`C`q`e`#`q`C`#`s`#`C`e`l`q`s`#`q`q`C`q`q`r`q`s`l`r`r`q`q`q`s`#`q",
"`C`e`#`C`q`#`q`C`q`q`e`q`q`q`r`l`C`q`C`#`c`C`q`C`q`C`#`#`s`q`q`s`#`s`t`q`s`#`t`s`s`q`q`q`s`q`s`q`l`q`q`q`q`q`q`r`r`q`q`q`r`q`q`q",
"`q`q`s`q`q`C`C`q`C`s`l`r`q`q`q`s`#`#`q`s`c`s`q`e`C`q`q`s`l`#`s`c`s`c`s`c`s`c`s`q`l`l`e`C`r`l`#`l`r`r`q`s`q`e`q`l`q`q`q`r`q`q`C`q",
"`#`s`q`q`q`q`q`q`q`q`q`r`l`e`l`q`q`q`q`h`s`q`q`c`#`q`q`s`q`t`q`#`c`#`#`q`#`C`#`q`r`#`s`q`#`l`q`e`q`q`C`q`q`C`q`l`C`#`s`#`C`#`C`q",
"`#`q`#`s`q`q`C`q`q`q`r`l`r`l`e`s`s`#`s`#`c`s`#`t`t`q`C`#`t`#`q`C`q`q`q`s`#`q`C`q`q`q`q`q`q`e`q`q`l`e`q`q`C`q`e`q`q`#`C`#`#`C`q`q",
"`s`l`#`C`q`C`q`s`q`s`#`C`C`e`l`q`q`s`q`C`q`q`s`q`q`s`#`q`c`s`q`t`c`t`c`t`#`C`q`q`s`l`q`q`q`l`C`q`q`C`q`s`r`q`q`C`#`s`q`#`q`s`q`q",
"`#`q`q`C`q`s`t`s`#`q`s`q`#`q`q`C`q`l`q`q`#`s`c`C`q`#`s`q`C`t`#`t`j`s`#`t`q`#`q`q`q`e`C`s`q`#`s`q`q`s`t`#`q`#`C`q`e`q`C`#`s`c`#`s"
};
