/* XPM */
static char *dragon_xpm[] = {
/* width height num_colors chars_per_pixel */
"    64    64      256            2",
/* colors */
"`` c #a4c700",
"`. c #a3c600",
"`# c #a1c500",
"`a c #a3c700",
"`b c #a6c900",
"`c c #a6c800",
"`d c #a5c800",
"`e c #a5c700",
"`f c #a8c900",
"`g c #a8ca00",
"`h c #a9ca00",
"`i c #a6c700",
"`j c #a7c900",
"`k c #a9cb00",
"`l c #aacb00",
"`m c #abcb00",
"`n c #abcc00",
"`o c #a2c500",
"`p c #a2c600",
"`q c #a3c500",
"`r c #a4c600",
"`s c #a7c800",
"`t c #a2c400",
"`u c #a0c400",
"`v c #accd00",
"`w c #a8cb00",
"`x c #aacc00",
"`y c #adcd00",
"`z c #b3b1a4",
"`A c #ddddda",
"`B c #accc00",
"`C c #83acca",
"`D c #2e8dcf",
"`E c #5795c0",
"`F c #b7c2ca",
"`G c #597487",
"`H c #938f9c",
"`I c #2f6384",
"`J c #2a485c",
"`K c #277bb6",
"`L c #5ea4d7",
"`M c #a7ca00",
"`N c #91bfe7",
"`O c #9dc40a",
"`P c #a8ca04",
"`Q c #accc01",
"`R c #aaca01",
"`S c #7cb121",
"`T c #a0c505",
"`U c #8cbb18",
"`V c #9dc30b",
"`W c #9ac108",
"`X c #8dba15",
"`Y c #9dc305",
"`Z c #a0c300",
"`0 c #a0c509",
"`1 c #8eba15",
"`2 c #a1c606",
"`3 c #91bd14",
"`4 c #aacc01",
"`5 c #e7bf82",
"`6 c #a75472",
"`7 c #a0c503",
"`8 c #8db911",
".` c #a5c701",
".. c #97bf09",
".# c #7baf1e",
".a c #91bc11",
".b c #9fc300",
".c c #a0c402",
".d c #a4c701",
".e c #8cb912",
".f c #8cb810",
".g c #a1c400",
".h c #89b815",
".i c #85b618",
".j c #a6c801",
".k c #9dc307",
".l c #9ac109",
".m c #a4c800",
".n c #9dc208",
".o c #9ac20b",
".p c #9dc30a",
".q c #a5c801",
".r c #a9c900",
".s c #8dba14",
".t c #84b41a",
".u c #96bf0d",
".v c #84b51f",
".w c #9dc409",
".x c #94be0f",
".y c #9cc207",
".z c #96bf0c",
".A c #a7c901",
".B c #aaca00",
".C c #a6c901",
".D c #a2c705",
".E c #a4c802",
".F c #8ab818",
".G c #accb00",
".H c #80b220",
".I c #96bf0f",
".J c #aacb01",
".K c #8ab819",
".L c #86b51a",
".M c #9ac20a",
".N c #9ec303",
".O c #a7ca03",
".P c #a7ca01",
".Q c #99c10c",
".R c #a1c602",
".S c #9fc304",
".T c #9ec200",
".U c #81b31d",
".V c #97c00e",
".W c #8dba17",
".X c #8fbb12",
".Y c #97c00b",
".Z c #9ac10b",
".0 c #9bc20b",
".1 c #9fc405",
".2 c #9ec300",
".3 c #97bf0d",
".4 c #a2c502",
".5 c #a3c602",
".6 c #9dc204",
".7 c #79ad21",
".8 c #9dc406",
"#` c #83b51e",
"#. c #9fc406",
"## c #a2c601",
"#a c #9fc407",
"#b c #93be14",
"#c c #a2c504",
"#d c #9fc404",
"#e c #a3c601",
"#f c #81b21a",
"#g c #a2c602",
"#h c #98c00e",
"#i c #80b21c",
"#j c #7fb11e",
"#k c #98c00c",
"#l c #98c10b",
"#m c #83b41c",
"#n c #a3c702",
"#o c #9dc206",
"#p c #a5c900",
"#q c #000000",
"#r c #000000",
"#s c #000000",
"#t c #000000",
"#u c #000000",
"#v c #000000",
"#w c #000000",
"#x c #000000",
"#y c #000000",
"#z c #000000",
"#A c #000000",
"#B c #000000",
"#C c #000000",
"#D c #000000",
"#E c #000000",
"#F c #000000",
"#G c #000000",
"#H c #000000",
"#I c #000000",
"#J c #000000",
"#K c #000000",
"#L c #000000",
"#M c #000000",
"#N c #000000",
"#O c #000000",
"#P c #000000",
"#Q c #000000",
"#R c #000000",
"#S c #000000",
"#T c #000000",
"#U c #000000",
"#V c #000000",
"#W c #000000",
"#X c #000000",
"#Y c #000000",
"#Z c #000000",
"#0 c #000000",
"#1 c #000000",
"#2 c #000000",
"#3 c #000000",
"#4 c #000000",
"#5 c #000000",
"#6 c #000000",
"#7 c #000000",
"#8 c #000000",
"a` c #000000",
"a. c #000000",
"a# c #000000",
"aa c #000000",
"ab c #000000",
"ac c #000000",
"ad c #000000",
"ae c #000000",
"af c #000000",
"ag c #000000",
"ah c #000000",
"ai c #000000",
"aj c #000000",
"ak c #000000",
"al c #000000",
"am c #000000",
"an c #000000",
"ao c #000000",
"ap c #000000",
"aq c #000000",
"ar c #000000",
"as c #000000",
"at c #000000",
"au c #000000",
"av c #000000",
"aw c #000000",
"ax c #000000",
"ay c #000000",
"az c #000000",
"aA c #000000",
"aB c #000000",
"aC c #000000",
"aD c #000000",
"aE c #000000",
"aF c #000000",
"aG c #000000",
"aH c #000000",
"aI c #000000",
"aJ c #000000",
"aK c #000000",
"aL c #000000",
"aM c #000000",
"aN c #000000",
"aO c #000000",
"aP c #000000",
"aQ c #000000",
"aR c #000000",
"aS c #000000",
"aT c #000000",
"aU c #000000",
"aV c #000000",
"aW c #000000",
"aX c #000000",
"aY c #000000",
"aZ c #000000",
"a0 c #000000",
"a1 c #000000",
"a2 c #000000",
"a3 c #000000",
"a4 c #000000",
"a5 c #000000",
"a6 c #000000",
"a7 c #000000",
"a8 c #000000",
/* pixels */
"`````.`.`#`a`b`c`c`d`e```f`g`h`h`i```j`k`j`j`c`c`c`h`j`g`l`g`g`g`m`m`d`c`n`h`g`c`j`c`f`j`h`h`b`c`c`c`k`j`f`o`p`g`f`c`h`j```e`b`j",
"`c`j`.`.`q`c`g`j```r`c`c`d`g`k`s```f`g`c`j`g`g`h`g`h`l`h`s`c`j`l`h`f`j`k`c`c`j`.`j`f`j`g`l`j`j`l`j`c`d`k`h`l`c`f`#`t`j`c`c`h`f``",
"`c`l`j`c`.`d`g`f`s`c`c`j`g`g`d`c`c`e`j`.```e`g`j`g`k`s`j`j`j`f`l`j`u`t`e`o`c`b```e`c`n`n`g`g`g`l`l`v`j`g`l`l`e`c`.`.`c`c`e```d`c",
"`c`c`h`j`d`.`j`k`j`h`g`b`j`j`e`e`j`f`e`.`d`j`f`g`h`w`d`c`g`j`d`c`j`c`g`n`l`n`h`h`h`l`x`n`h`l`k`k`l`g`g`l`l`m`f`o`e`b`e```j`c`j`e",
"`h`j`j`b`j`j```b`j`j`j`g`j`l`l`b`c`l`b`e`g`h`j`h`y`l`z`A`j```u```j`g`h`l`j`j`j`f`l`j`j`g`c`j```.```g`b`g`h`j`j```.`.`c`c`j`b```.",
"`B`x`g`d`c`c`o`r`j`d`e`d`g`h`c`d`e`h`b`f`b`s`j`c`C`D`E`e`j`d`F`E`F`l`n`j`g`h`j`d`j`j`l`n`l`s`b`d`g`f`g`g`c`e`h`j`e```f`h`j`c`.`.",
"`h`h`f`l`g`.`#`c`j`c```d`j`F`z`G`E`E`z`c`p`.`F`D`D`D`A`e`A`E`D`D`d`j`l`n`g`g`F`F`H`I`E`C`F`l`x`n`l`n`k`c`e`d`c`j`c`c`e`b`e`c`e`o",
"`.`c`c`j`h`j`e```d`b`d`.`F`I`I`J`K`J`K`A`e`L`D`K`D`C`A`C`D`D`D`z`h`d`M`k`N`E`J`I`J`J`D`D`D`E`C`A`B`x`r`c`l`s`j`b`c`f`j```c`j`j`c",
"`#`b`k`c`````g`g`b`j`g`j`G`I`K`K`K`K`D`z`E`D`D`D`D`D`D`D`D`D`E`l`B`g`g`H`J`J`J`K`K`D`D`D`D`D`D`D`C`r`u`O`P`Q`R`l`l`g`l`c`c`c`b`g",
"`d`e`c`````e`f`g`k`l`g`N`D`K`K`E`D`D`K`D`D`D`D`D`D`D`D`D`D`D`A`j`g`x`B`G`I`D`E`D`D`D`E`D`L`L`D`D`D`E`F`S`T`U`V`B`l`l`j`c`e`e`d`j",
"`c`e`.`.`.`c`h`j`j`n`C`D`D`L`N`L`L`D`K`L`K`D`D`D`K`E`D`D`D`D`C`F`h`k`c`j`A`A```C`D`D`E`L`D`N`N`L`D`D`D`C`W`X`Y`k`l`j`d```j`c`e`d",
"`c`c`b`e`.`j`M`j`j`C`D`D`C`N`L`E`E`K`D`L`C`D`D`L`G`C`D`D`D`D`D`C`f`m`j`d`j`d`j`C`D`L`D`C`L`D`N`N`N`E`D`D`C`h`j`j`c`e`g`g`g`e`e`a",
"`h`m`b```d`l`g`j`F`D`D`N`N`C`K`D`D`D`D`D`D`D`D`D`L`D`D`D`D`D`D`C`j`g`n`c`e`s`M`C`D`L`L`E`N`E`E`N`N`N`L`D`D`C`j`d`d`j`g`h`c`b`j`c",
"`f`h`f`j`j`c`j`A`D`D`N`N`N`E`K`K`D`K`D`D`D`D`D`D`D`D`D`D`D`D`D`D`C`j`h`e`r`c`j`C`D`L`N`D`N`N`D`L`N`N`N`C`D`D`C`Z`.`f`f`c`j`h`h`j",
"`y`0`1`h`````j`L`D`N`N`N`N`D`D`D`D`K`K`D`D`D`D`D`D`D`D`D`D`D`D`D`A`j`h`g`o```h`E`D`L`N`D`L`N`C`D`N`N`N`N`N`D`D`C`g```g`f`k`l`j`b",
"`h`2`3`g`e`e`F`D`L`N`N`N`L`L`N`C`E`L`L`E`D`D`D`D`D`D`D`z`C`D`D`D`E`A`j`j`c`s`d`D`D`L`N`L`E`N`N`E`L`N`N`N`N`N`D`D`F`e`e`n`g`h`c`h",
"`4`B`f`d`M`g`E`L`N`N`N`N`D`C`N`L`L`N`F`L`C`F`F`z`H`H`z`5`5`E`K`D`E`s`j`g```b`A`D`D`L`N`C`D`N`N`N`D`C`N`N`N`N`N`D`E`h`M`c`l`b`d`g",
"`j`j`e`j`c`F`D`N`N`N`N`C`E`N`N`L`L`N`C`K`D`A`z`6`H`5`5`5`5`C`D`K`I`z`7`8.``f`C`D`D`C`N`N`D`N`N`N`L`E`N`N`N`N`N`C`D`C`l`c`h`.`r`d",
"`c`f`j`d`j`E`L`N`N`N`N`L`L`N`N`L`L`N`N`E`D`z`6`6`5`5`5`5`5`z`D`D`I`A...#`j`d`E`D`D`N`N`N`D`C`N`N`N`D`C`N`N`N`N`N`L`D`F`s`b`b`.`d",
"`g`h`f`M`F`D`N`N`N`N`N`D`C`N`N`L`L`N`N`L`E`6`6`5`5`5`5`5`5`z`D`D`K`G`F.a`j`C`D`K`E`N`N`N`E`L`N`N`N`L`D`N`N`N`N`N`N`D`E`b`````.`c",
"`j`c`b`j`E`L`N`N`N`N`C`E`N`N`N`L`L`N`N`N`z`H`5`5`5`5`5`5`5`5`D`D`D`K`z`e`z`D`D`D`L`N`N`N`L`E`N`N`N`N`D`C`N`N`N`N`N`C`D`F`e`a`.`.",
"`c`.`r`A`D`N`N`N`N`N`L`L`N`N`N`L`L`N`N`F`5`5`5`C`C`5`5`5`5`5`D`D`D`K`F`C`D`D`D`D`N`N`N`N`L`E`N`N`N`N`L`E`N`N`N`N`N`N`L`E`j`d`d`.",
"`d`.`d`C`L`N`N`N`N`N`E`C`N`N`N`L`L`N`N`N`F`C`D`D`D`z`5`5`5`z`D`D`K`K`D`D`D`D`D`L`N`N`N`N`C`D`N`N`N`N`N`D`N`N`N`N`N`N`C`D`F`e`d`d",
"`j`e`f`E`C`N`N`N`N`N`D`N`N`N`N`L`L`N`N`N`N`L`D`D`D`C`5`5`5`z`D`D`K`D`D`D`D`K`D`N`N`N`N`N`N`D`N`N`N`N`N`L`L`N`N`N`N`N`N`L`C`j`e`c",
"`c`j`c`D`N`N`N`N`N`C`E`N`N`N`N`L`L`N`N`N`N`N`L`D`D`E`5`5`5`z`D`D`D`D`D`D`D`D`C`N`N`N`N`N`N`D`N`N`N`N`N`C`D`N`N`N`N`N`N`C`E`d`f`h",
"`c`e`F`E`N`N`N`N`N`L`L`N`N`N`N`L`E`N`N`N`N`N`N`E`D`E`5`5`5`C`D`D`D`D`D`D`D`C`N`N`N`N`N`N`N`D`N`N`N`N`N`N`D`C`N`N`N`N`N`N`D`A`k``",
"`````F`L`N`C`C`N`N`E`L`N`N`N`N`N`E`N`N`N`N`N`N`N`D`C`5`5`5`C`D`D`D`D`D`D`C`N`N`N`N`N`N`N`N`D`N`N`N`N`N`N`L`E`N`N`N`N`N`N`L`F`d`#",
"`c`c`z`C`A```d`A`z`C`N`A`A`A`F`C`C`F`A`A`F`F`N`N`N`z`5`5`5`E`D`D`D`D`D`L`N`C`F`A`.```c`A`z`C`N`F`A`A`F`F`C`L`N`F`F`F`F`F`L`C`o`o",
"`d`c`F`F```j`j`c`j`A`s`j`e`c`k`b`A`d`j`c`.`c`h`F`F`5`5`5`5`E`K`D`D`D`D`D`D`I`A`d`e`o`p```b`j`k`f`r`d```d`g`F`A`j`k`j`.`u`A`C`e`c",
"`e`r`b`c`d`j`f`j`f`e`j`d`g`g`c```j`c```e`r`j`k`g`z`5`5`5`5`D`D`D`D`D`D`D`D`K`A`j`f`d`j`c```j`j`c`e`d`M`j`.```d`b`c`o`.`.`u`F```d",
"`e`.```e`d`#`o`c`d`r`d`c`d```a`c`d`#```d`e```k`A`5`5`5`5`5`D`D`D`K`K`D`D`D`K`C`k`l`b`c`j`g`j`c`j`k`j`a```c`c`b`d`c`p.b`.`.`u.c.d",
"`d`c```.`p`#`.`c`e`o`u`d```.```a`p`c`.`c`.`o`h`F`5`5`5`5`5`D`D`K`K`D`D`D`D`D`K`M`l```f`b`k`r`.`g`c`d`j`.`d`s`d`s`d`j```r`.`..e.f",
"`f`f`.`p.g`u`d`j`c`c`j`j`r`.`g``.g`s`i`e`.`e`.`z`5`5`5`5`5`D`D`K`D`D`D`D`D`D`E`g`d`d`f```g`e`.`h`c`.`l`k`f`g`g`j`k`g`k`h```s.h.i",
"`c`j```c```p`j`g`d`c`e.j`d`q`b`f```b`b`.```j`C`z`5`5`5`5`5`D`K`K`D`D`D`D`D`D`K`F`s```f`l`l`s`c`c`k`g`s`g`m`l`B`e`j`h```f`d`h.k.l",
"`.```e```p`j`j`g`g```f`h`f`g`M`l.m`c`c`b`j`z`D`z`5`5`5`5`5`E`K`K`D`D`D`D`D`D`K`z`f`g`l`g`c`e`.`r`h`l`f`f`h`l```u`i`f`f`j`g`j`e`d",
"`d`c`h`g`h`l`l`h`k`h.n.o.d.p`g`l`j`.`d`j`k`E`D`z`5`5`5`5`5`C`K`K`D`D`D`D`D`D`D`c`e`c`c`c`h`j`j```g`k`j`b`j```u`g`l`j`h`j`````#`#",
"```.`j`m`n`l`n`l.q.r.s.t.u.v`m`d`c```r`j`A`D`D`C`5`5`5`5`5`z`D`D`D`D`D`K`D`D`K`z`h`b`M`n`x`l`h`c`j`j`j`d`r```l`g```f`j`d`o`q```#",
"`.`d`M`g```j`k`j`c`s.w.x.y.z`g`h`c`g`k`j`A`D`D`E`5`5`5`5`5`5`E`D`D`D`D`D`D`D`K`z`n`l`n`n`l`g`e`s`c`l`b`e`g`s`g`g`e`g`j`g`d``````",
"`j`l`h`g`g`h`j`c`k`g`k`f`c`c`x`v`g`g`g```A`D`D`D`z`5`5`5`5`5`C`D`D`D`D`D`D`D`C`f`f`g`h.g`c`m`c`e`c`l`g`j`g`j`g`l`k`n`l`n`h`d`c`f",
"`l`j`f`j`e`o`r`j`g`g`c.A`j`c`B`b`d```c`c`c`L`D`D`D`z`5`5`5`5`5`D`D`D`D`D`D`D`D`D`A`k`c`c`l`h`g`g`b`j`c`g`b`h`l`h`g`h`n`m`e`e`x`f",
"`b`d`j`c.g`.`e`j`h`d`g.B`g`j`e`p`e`c```e`j`F`D`D`D`E`5`5`5`5`5`z`D`D`D`D`D`D`D`D`F.C`l.D.E`f`m`l`f`f`g`h`l`h`j`d`j`k`h`j`j`h`c`b",
"`g`c`r```b`h`f```j`k`h`l`j`j`s`e`d`d`j`c`k`c`z`D`D`D`D`z`5`5`5`5`z`C`C`D`D`D`D`D`C.F.G.H.I`m.J`h`h`g`l.B`j`b`j`j`g`x`j`u`o`c`o`c",
"`b`d`g`j`j```c`b`d`l`h`h`c`h`m`v`B`g`b`.`k`f`c`A`C`E`D`D`C`5`5`5`5`5`5`E`D`D`D`D`L.K`s.L.M`B`k`n`l`g`e`c`c`c`j`j`c`c`d`j`o`c`f`b",
"`.`r`g`d`.`d`c`h`h`c`l`e`e`g`M`l`j`j`d`j`c`e`j`c`r`F`D`D`D`C`5`5`5`5`5`D`D`D`D`D`E.N`c.O.P`f`k`g`j`c`j`g`j`x`k`j`c`o`.`j`d`d```b",
"`j`e```.```p`d`l`l`j`f```.`e`d`j`l`g`j`h`c`d`j`j`e`z`D`D`D`E`z`5`5`5`z`K`D`K`E`E`G`i`d`j`d```j`j`j`j`j`d`c`l`g`j`j`j`b`d`e`f`l`l",
"`.```c`#`.```c`k`j`c`d`c```s`c`f.x.Q.R.S`j`j`h`h`b`L`D`D`D`E`A`5`5`5`C`J`J`G`H`f`z`s`c`d`r`.`r`s`h`e.g`r`k`f`c`j`i`j`g`c`s`h`h`g",
"`c`s`s.T`u```e`j`g`j`.`.`.`````j.U.V.W.X`f.A`f```e`G`E`G`H`H`d`5`5`5`C`I`I`z`A`b`d`````e`d`j`g`g`b`.`e`j`b`h`s`b`c`j`l`f`k`g`c`d",
"`c`..g`r`e`d`c`j`l`d`c```.`p`e`l.Y.Z.0.1`r```c`f`g`H`A`z```A`e`5`5`5`L`D`D`E`c`d`#`.`e`.`.`g`c`````e`j`j`j`h.r`h`j`f`h`j`f`m`g`d",
"`#`.`c`c`j`j`c`b`h`c`r`d`c`e`d`j`l`k`h`j`b`h`d`j`f`j`j`e`c`h`j`5`5`5`E`D`K`F`.`c`u.g`M`r`.`e`.```r`d`e`j`h`j`c`j`h`k`j`j`l`h`e`c",
"`r.g`c`e`c`d`d`b`d`````r```c`r.g.d`e`````c`f`c`f`h`g`c`g`g`d```5`5`5`C`D`K`F`.`.`b`s`c`d`.`c`j```d`j`e`j`l`j`h`j`s`e`j`g`b`b`b`u",
"`h```u`c`h`j`M`g`h`c`c`e`r`.`o.g`d`c`j`r`o`j`j```c`g`i`o`j`d`A`5`5`5`C`D`K`F`````s`e`e`.`.`r`c`c`c`b`e`d```.`d`M`j`d`c`e`d`j``.2",
"`h`g`e`f`h`e`d`l`g`f`g`c`o`p.b`p`e```e`b`f`g`c`c`r`e`g`s`e`l`A`5`5`5`z`D`K`H`d`c`s`j`r`e`c`d`j`c`b`p`c`u.g`r`l`l`j`c`i`r`c`c`..b",
"```e`s`f`e`c`j`g`j`c`j`d```c`o`e`e`c`.`e`k`f`g`j```j`b`j`g`x`h`5`5`5`5`D`K`K`j```d`c`s`f`h`h`h`g`b`h`c`.`f`l`g`j`g`b`e`d`d`c`r`o",
"`e```.```j`j`h`j```r`.`e`e`p`a`c```j`l`n`g`h`e```d`g`b`c`k`g`s`5`5`5`5`L`D`E`j`g`j`c`l`f`g`B`n`l`h.3.4.5`d`j`c`b`g`````.```j`d``",
"`a```d`j`c`d`j`c`e`d`e`f`h`d`g`j`e`b`v`j`g`.```b`o`.`g`d`e`c`f`z`5`5`5`z`D`K`E`l`l`g`k`l`h`n`j`#.6.7.8#`#..g`.`h`.`o.b.g`e```j`j",
"`c`b`l`f`b`f`h`j`.`.`````h`g`l`j`g`d`g`h`j`j`b`d`j`j`j```d`d`h`A`5`5`5`5`L`D`E`m`g`b`j`j`k`g`.`u##`X#a#b#c`u.T`c`.`u.b```e`c`c``",
"`k`k`k`h`j`c`j`j`c`.`.`.`d`s`j`j`.`.`c`g`e`g`j`b`h`g`d```c`e`f`g`F`5`5`5`5`D`K`G`z`b`d`c`c`h`c`u```h`h`h`l`j`e`e`d`o`d`d`c`h`c`e",
"`g`n`h`j`c`c```o.5`c.`#d`a```f`l`o`#`c`h`h`j`j`g`c`e`M`c`c`f`l`k`j`z`5`5`5`z`D`K`K`H`F`d`b`c`e`e`c`c`````b```o`s`.`e`.`r`c```d`h",
"`j`g`d```c`e`.#e#f#g#h#i`c`p`g`c```c`f`h`c`g`g`g`c`M`b`c`r`g`j`n`B`m`F`z`5`5`5`L`D`D`D`F`d`.`j`M`d```````.`d`.`d```.`e`j`d`d`f.b",
"`s`j`d`f`u```j`j#j#k#l#m`f`d`n`o`p```e`b`f`j`s`.`#`g`c`g`l`k`h`g`h`l`l`h`A`z`5`5`z`H`C`z`h`d`c`r`````r`e`j`M`j`c`b```c`l`g`l`l`c",
"`h`j`b`l`#`.`b`c#n#g.d#o```b`f`Z`e`.`o`d`j`e`j`g`j`g`M`j`s`c`g`j`j`g`l`y`n`x`g`j`d`c`d`d`h`c`d`r.g`e`j`k`k`h`g`g`c`c`.`d`g#p`c`l",
"`g`l`g`h`g`g`r`h`c`.`c`c```h`o```c`o`.`b`b`j`k`h`n`n`n`g`f`f`l`k`v`x`g`v`l`l`j`c`d`h`f`k`c`e`e`c`d`e`g`g`g`b`j`j`c`e`b`f`f`d`k`c",
"```f`b```f`k`e`e`d```d`j`d```o`o```c`e```c`k`l`b`.`k`n`n`l`B`n`g`n`n`g`k`g`g`d`e`c`c`.`j`f`k`l```d`h`l`h`s`j`j`h`j```c```o```g`j",
"`j`f`e`h`g`c`c`.`c`j`.```g`e`c`u```g`j`d`j`l`k`k`g`j`g`y`n`n`j`h`k`g`j`f`c`f`h`.`c`r`e`q`c`j`l```g`n`k`j`f`c`g`x`c`j`c`.`c`s`d`j"
};
