/* XPM */
static char *land_xpm[] = {
/* width height num_colors chars_per_pixel */
"    64    64      256            2",
/* colors */
"`` c #a4c700",
"`. c #a3c600",
"`# c #a1c500",
"`a c #a3c700",
"`b c #a6c900",
"`c c #a6c800",
"`d c #a5c800",
"`e c #a5c700",
"`f c #a8c900",
"`g c #a8ca00",
"`h c #a9ca00",
"`i c #a6c700",
"`j c #a7c900",
"`k c #a9cb00",
"`l c #aacb00",
"`m c #abcb00",
"`n c #abcc00",
"`o c #a2c500",
"`p c #a2c600",
"`q c #a3c500",
"`r c #a4c600",
"`s c #a7c800",
"`t c #a2c400",
"`u c #a0c400",
"`v c #accd00",
"`w c #a8cb00",
"`x c #aacc00",
"`y c #adcd00",
"`z c #accc00",
"`A c #a0c504",
"`B c #a7c901",
"`C c #a7c902",
"`D c #a3c602",
"`E c #85b51a",
"`F c #9bc109",
"`G c #90bb11",
"`H c #8ab817",
"`I c #a7ca00",
"`J c #88b717",
"`K c #9bc208",
"`L c #8dba12",
"`M c #93bd0c",
"`N c #9dc40a",
"`O c #a8ca04",
"`P c #accc01",
"`Q c #aaca01",
"`R c #a2c601",
"`S c #aaca00",
"`T c #a3c702",
"`U c #7cb121",
"`V c #a0c505",
"`W c #8cbb18",
"`X c #9dc30b",
"`Y c #a1c400",
"`Z c #86b619",
"`0 c #9ac108",
"`1 c #8dba15",
"`2 c #9dc305",
"`3 c #a8ca03",
"`4 c #a0c300",
"`5 c #9fc300",
"`6 c #9ec300",
"`7 c #9ec200",
"`8 c #a0c509",
".` c #8eba15",
".. c #a1c606",
".# c #91bd14",
".a c #aacc01",
".b c #9dc200",
".c c #9cc20c",
".d c #a6c804",
".e c #a0c503",
".f c #8db911",
".g c #a5c701",
".h c #87b81e",
".i c #95be0f",
".j c #97bf09",
".k c #7baf1e",
".l c #9cc309",
".m c #a1c505",
".n c #91bc11",
".o c #90bc16",
".p c #a2c70a",
".q c #9ac20a",
".r c #96be09",
".s c #7eb122",
".t c #9dc40b",
".u c #86b61b",
".v c #93bd0d",
".w c #96bf0b",
".x c #9ec306",
".y c #9ec407",
".z c #a5c802",
".A c #a4c800",
".B c #a0c402",
".C c #a4c701",
".D c #8cb912",
".E c #8cb810",
".F c #89b815",
".G c #85b618",
".H c #a6c801",
".I c #a9c900",
".J c #9dc307",
".K c #9ac109",
".L c #9dc208",
".M c #9ac20b",
".N c #9dc30a",
".O c #a5c801",
".P c #8dba14",
".Q c #84b41a",
".R c #96bf0d",
".S c #84b51f",
".T c #9dc409",
".U c #94be0f",
".V c #9cc207",
".W c #96bf0c",
".X c #abcd00",
".Y c #a6c901",
".Z c #a2c705",
".0 c #a4c802",
".1 c #99c10c",
".2 c #8ab818",
".3 c #accb00",
".4 c #80b220",
".5 c #96bf0f",
".6 c #aacb01",
".7 c #8ab819",
".8 c #86b51a",
"#` c #a2c501",
"#. c #9ec303",
"## c #a7ca03",
"#a c #a7ca01",
"#b c #a1c602",
"#c c #9fc304",
"#d c #81b31d",
"#e c #97c00e",
"#f c #8dba17",
"#g c #8fbb12",
"#h c #97c00b",
"#i c #9ac10b",
"#j c #9bc20b",
"#k c #9fc405",
"#l c #97bf0d",
"#m c #a2c502",
"#n c #9dc204",
"#o c #79ad21",
"#p c #9dc406",
"#q c #83b51e",
"#r c #9fc406",
"#s c #9fc407",
"#t c #93be14",
"#u c #a2c504",
"#v c #9fc404",
"#w c #a3c601",
"#x c #81b21a",
"#y c #a2c602",
"#z c #98c00e",
"#A c #80b21c",
"#B c #7fb11e",
"#C c #98c00c",
"#D c #98c10b",
"#E c #83b41c",
"#F c #9dc206",
"#G c #a5c900",
"#H c #000000",
"#I c #000000",
"#J c #000000",
"#K c #000000",
"#L c #000000",
"#M c #000000",
"#N c #000000",
"#O c #000000",
"#P c #000000",
"#Q c #000000",
"#R c #000000",
"#S c #000000",
"#T c #000000",
"#U c #000000",
"#V c #000000",
"#W c #000000",
"#X c #000000",
"#Y c #000000",
"#Z c #000000",
"#0 c #000000",
"#1 c #000000",
"#2 c #000000",
"#3 c #000000",
"#4 c #000000",
"#5 c #000000",
"#6 c #000000",
"#7 c #000000",
"#8 c #000000",
"a` c #000000",
"a. c #000000",
"a# c #000000",
"aa c #000000",
"ab c #000000",
"ac c #000000",
"ad c #000000",
"ae c #000000",
"af c #000000",
"ag c #000000",
"ah c #000000",
"ai c #000000",
"aj c #000000",
"ak c #000000",
"al c #000000",
"am c #000000",
"an c #000000",
"ao c #000000",
"ap c #000000",
"aq c #000000",
"ar c #000000",
"as c #000000",
"at c #000000",
"au c #000000",
"av c #000000",
"aw c #000000",
"ax c #000000",
"ay c #000000",
"az c #000000",
"aA c #000000",
"aB c #000000",
"aC c #000000",
"aD c #000000",
"aE c #000000",
"aF c #000000",
"aG c #000000",
"aH c #000000",
"aI c #000000",
"aJ c #000000",
"aK c #000000",
"aL c #000000",
"aM c #000000",
"aN c #000000",
"aO c #000000",
"aP c #000000",
"aQ c #000000",
"aR c #000000",
"aS c #000000",
"aT c #000000",
"aU c #000000",
"aV c #000000",
"aW c #000000",
"aX c #000000",
"aY c #000000",
"aZ c #000000",
"a0 c #000000",
"a1 c #000000",
"a2 c #000000",
"a3 c #000000",
"a4 c #000000",
"a5 c #000000",
"a6 c #000000",
"a7 c #000000",
"a8 c #000000",
/* pixels */
"`````.`.`#`a`b`c`c`d`e```f`g`h`h`i```j`k`j`j`c`c`c`h`j`g`l`g`g`g`m`m`d`c`n`h`g`c`j`c`f`j`h`h`b`c`c`c`k`j`f`o`p`g`f`c`h`j```e`b`j",
"`c`j`.`.`q`c`g`j```r`c`c`d`g`k`s```f`g`c`j`g`g`h`g`h`l`h`s`c`j`l`h`f`j`k`c`c`j`.`j`f`j`g`l`j`j`l`j`c`d`k`h`l`c`f`#`t`j`c`c`h`f``",
"`c`l`j`c`.`d`g`f`s`c`c`j`g`g`d`c`c`e`j`.```e`g`j`g`k`s`j`j`j`f`l`j`u`t`e`o`c`b```e`c`n`n`g`g`g`l`l`v`j`g`l`l`e`c`.`.`c`c`e```d`c",
"`c`c`h`j`d`.`j`k`j`h`g`b`j`j`e`e`j`f`e`.`d`j`f`g`h`w`d`c`g`j`d`c`j`c`g`n`l`n`h`h`h`l`x`n`h`l`k`k`l`g`g`l`l`m`f`o`e`b`e```j`c`j`e",
"`h`j`j`b`j`j```b`j`j`j`g`j`l`l`b`c`l`b`e`g`h`j`h`y`l`f`j`j```u```j`g`h`l`j`j`j`f`l`j`j`g`c`j```.```g`b`g`h`j`j```.`.`c`c`j`b```.",
"`z`x`g`d`c`c`o`r`j`d`e`d`g`h`c`d`e`h`b`f`b`s`j`c`c`c`d`e`j`d`.`c`j`l`n`j`g`h`j`d`j`j`l`n`l`s`b`d`g`f`g`g`c`e`h`j`e```f`h`j`c`.`.",
"`h`h`f`l`g`.`#`c`j`c```d`j`g`A`B`C`D`d`c`p`.`p```.`o`e`e`c`j`l`j`d`j`l`n`g`g`c`b`g`v`n`l`l`l`x`n`l`n`k`c`e`d`c`j`c`c`e`b`e`c`e`o",
"`.`c`c`j`h`j`e```d`b`d`.`d`g`E`F`G`H`h`p`e`d`.```r`.`c`c`e`h`l`y`h`d`I`k`c`b`h`l`l`l`h`f`m`h`f`h`z`x`r`c`l`s`j`b`c`f`j```c`j`j`c",
"`#`b`k`c`````g`g`b`j`g`j`c`s`J`K`L`M`f`c`.`o`.`a`e`d`c```d`m`e`l`z`g`g`f`f`d`x`y`l`g`l`h`h`k`h`k`l`r`u`N`O`P`Q`l`l`g`l`c`c`c`b`g",
"`d`e`c`````e`f`g`k`l`g`j`h`e`B`.`R`c`c`d`.`.```j`b`c`s`e```c`b`j`g`x`z`S`j`j`g`d`g`k`k`h`n`k`h`h`g`f`T`U`V`W`X`z`l`l`j`c`e`e`d`j",
"`c`e`.`.`.`c`h`j`j`n`n`e`e`c`k`q`Y`g```e`c`e```j`g`j`j`d`c`s`g`m`h`k`c`j`I`k```.`m`m`h`l`k`j`c`j`g`h`s`Z`0`1`2`k`l`j`d```j`c`e`d",
"`c`c`b`e`.`j`I`j`j`k`n`d`c`h`l`j`s`e```.```d`e`o`o`e`h`j`j`j`j`h`f`m`j`d`j`d`j`h`f`k`h`j`s`f`j`j`n`k`c`3`C`h`j`j`c`e`g`g`g`e`e`a",
"`h`m`b```d`l`g`j`b`l`g`d`h```I`j`l`c`b`c```r`.`u`.`c`c`````g`j`j`j`g`n`c`e`s`I`j```e`d`c`f`j`a`o`.`e`e`f`f`g`j`d`d`j`g`h`c`b`j`c",
"`f`h`f`j`j`c`j`s`c`I`j`s`f`j`h`f`h`g`g`j`.`p`#`````h`d`.`4`c`g`v`h`j`h`e`r`c`j`b`f`j`5`6`h`.`#`7`u`d`c`i`g`c`Y`4`.`f`f`c`j`h`h`j",
"`y`8.``h`````j`c`e`c`h`j`g`c`g`h`j`j`c`k`e`f`m`n`j`h`z`S`u```f`h`l`j`h`g`o```h`j`j`c```u`````o`u`c```f`c`e```e`k`g```g`f`k`l`j`b",
"`h...#`g`e`e`c`e`d`e`j`c`I`c`c`d```.`.`c`c`f`m`n`h`v`h`h`j`u```l`h`c`j`j`c`s`d`j`c`l`j`e`d`e`r`e`i`e`h`c`c`c`f```b`e`e`n`g`h`c`h",
".a`z`f`d`I`g`j`c`````l`g```g`c`j``.b`o`c`d`e`g`g`g`g`j`f`g```5`c`S`s`j`g```b`e`c`j`.`e`#`d`r`r`p```c`.`r`h`c```d`c`h`I`c`l`b`d`g",
"`j`j`e`j`c`l`c```k`j`f`g`c`h`c`n`h`u`j`j`c`g`h`f`b`j`j`f`e`j```c.c.d.e.f.g`f`g`c`d`e`d`e`e`e`.```r`.`c`c`b`a`.`.`c`k`l`c`h`.`r`d",
"`c`f`j`d`j`k`f`f`j`j`g`n`h`n`h`f`v`j`j`c`d`j`s`e```b`b`b`j`f`d`n.h.i.j.k`j`d`c`c`e`s`.`Y`c`j`b`e`````e`````o```.`e`k`g`s`b`b`.`d",
"`g`h`f`I`c`c`c`h`j`k`l`g`g`g`g`j`h`g`c`j`j`d`e`r`.`e`e```r`c`d`f.l`K.m.n`j`d`g`b`f`j`o`.`f`f`c`d`a```r`b`f`6`u`d`e`f`j`b`````.`c",
"`j`c`b`j`g`k`k`h`k`g`b`d`j`x`l`g`I`l`e`f`k`s`d```a`r`.`p`o`o`.`e`j`f`e`e`````d`s`d```e`d`g`j`c`e`c`j`I`d`o`#`.`.`e`f`x`e`e`a`.`.",
"`c`.`r`d`g`j`j`g`b`c`j`j`g`l`n`n`k`g`h`c`c`c`d`.`#`Y`p`d`e`r`5`r`c`a```j`j`g`h`l`j`e`c`c```r`c`d`g`l`j`d`e`d`c`g`f`g`h`f`j`d`d`.",
"`d`.`d`f`g`k`l`h`c`j`j`b`h`h`l`g`r`p`f`g`c`c`#`r```o```e`o`.`.`.`j`j`h`j`h`k`s`c`s`c```d`s`c`j`g`h`d```r`.`o`#`d`S.o.p.q.r`e`d`d",
"`j`e`f`h`j`h`y`l`g`c`b`b`g`g`c`k`c`g`j`k`h`j`c```````j`j`c`e`j`d`n`h`h`j`c`c`s`o`e```j`c`j`c`o`e`c`c`j`.`#`j`.`o`e.s.t.u.v`j`e`c",
"`c`j`c`c`j`b`e`d`d`e`b`f`l`l`k`k`m`h`h`g`l`j`c```e`c`h`k`k`h`e`c`I`.`````.`c`c`c`j`d`g`h`j`e`e`c`d`f`j`c`c`d`d`g`f.w.x.y.z`d`f`h",
"`c`e`.`.`o```.`o`e`d`.`f`k`j`g`j`n`k`n`n`j`c`j`k`k`c`c`l`j`l```c`j`e`.```c```d`j`g`e`d`c`d`d`j`h`e`f`g`g`j`j`s`j`c`c`j`h`h`f`k``",
"`````e`````````.`c`b```x`k`j`g`g`l`h`l`g`d`j`l`j`f`g`c`c`j`h`b```e`g`h`j`c```6`d`j`l`d`e`j`.`.`j`f`c`j`j`e`d`g```.`.`.`j`.`c`d`#",
"`c`c`o`o`.```d`b`j`i`l`k`c`l`n`n`g`h`c```c`g`g`c`k`l`g`j`c`f`f`c`j`g`c`j`e`````.`.```c`d`c`c```j`d```e`j`h`o```j`f`g`o`u`.`h`o`o",
"`d`c`.`.```j`j`c`j`e`s`j`e`c`k`b`.`d`j`c`.`c`h`l`l`c.A`j`l`l`g`f`f`j`c`g`j`j`c`d`e`o`p```b`j`k`f`r`d```d`g`c`.`j`k`j`.`u`o`e`e`c",
"`e`r`b`c`d`j`f`j`f`e`j`d`g`g`c```j`c```e`r`j`k`g`n`f`e`a`g`k`l`j`c`.`j`b`e`c`c`j`f`d`j`c```j`j`c`e`d`I`j`.```d`b`c`o`.`.`u`.```d",
"`e`.```e`d`#`o`c`d`r`d`c`d```a`c`d`#```d`e```k`j`h`l`k`e`r`o`c`j`c`o`d`h`g`g`k`k`l`b`c`j`g`j`c`j`k`j`a```c`c`b`d`c`p`5`.`.`u.B.C",
"`d`c```.`p`#`.`c`e`o`u`d```.```a`p`c`.`c`.`o`h`x`g`v`y`g`j`.`j`h`l`n`h`c`j`k`j`I`l```f`b`k`r`.`g`c`d`j`.`d`s`d`s`d`j```r`.`..D.E",
"`f`f`.`p`Y`u`d`j`c`c`j`j`r`.`g```Y`s`i`e`.`e`.`j`y`v`n`h`l`k`n`k`z`z`h`j`j`c`I`g`d`d`f```g`e`.`h`c`.`l`k`f`g`g`j`k`g`k`h```s.F.G",
"`c`j```c```p`j`g`d`c`e.H`d`q`b`f```b`b`.```j`c`j`v`x`h`g`h`z`n`g`l`n.I`k`k`j`k`l`s```f`l`l`s`c`c`k`g`s`g`m`l`z`e`j`h```f`d`h.J.K",
"`.```e```p`j`j`g`g```f`h`f`g`I`l.A`c`c`b`j`c`j`k`h`g`l`g`b`g`I`j`n`k`n`l`l`h`f`l`f`g`l`g`c`e`.`r`h`l`f`f`h`l```u`i`f`f`j`g`j`e`d",
"`d`c`h`g`h`l`l`h`k`h.L.M.C.N`g`l`j`.`d`j`k`f`j`d`k`n`h`k`h`g`j`j`h`j`l`v`g`b`c`c`e`c`c`c`h`j`j```g`k`j`b`j```u`g`l`j`h`j`````#`#",
"```.`j`m`n`l`n`l.O.I.P.Q.R.S`m`d`c```r`j`j`c```d`g`k`n`h`h`k`j`j`h`g`c`g`j`j`j`c`h`b`I`n`x`l`h`c`j`j`j`d`r```l`g```f`j`d`o`q```#",
"`.`d`I`g```j`k`j`c`s.T.U.V.W`g`h`c`g`k`j`c`j`h`g`f`j`g`l`h`j`h`c`j`j`g`h`h`h`j`h`n`l`n`n`l`g`e`s`c`l`b`e`g`s`g`g`e`g`j`g`d``````",
"`j`l`h`g`g`h`j`c`k`g`k`f`c`c`x`v`g`g`g```j`k`j`I`I`f`f`h`z`z`g`e`j`n`n`l`v`z`h`f`f`g`h`Y`c`m`c`e`c`l`g`j`g`j`g`l`k`n`l`n`h`d`c`f",
"`l`j`f`j`e`o`r`j`g`g`c`B`j`c`z`b`d```c`c`c`j```d`b`g`g`g`j`h`l`z`x.X`n`m`k`j`h`g`j`k`c`c`l`h`g`g`b`j`c`g`b`h`l`h`g`h`n`m`e`e`x`f",
"`b`d`j`c`Y`.`e`j`h`d`g`S`g`j`e`p`e`c```e`j`c`.`.`c`j`g`j`g`g`h`v`v`z`f`c`c`c`c`g`B.Y`l.Z.0`f`m`l`f`f`g`h`l`h`j`d`j`k`h`j`j`h`c`b",
"`g`c`r```b`h`f```j`k`h`l`j`j`s`e`d`d`j`c`k`c```j`g`f`h`z`n`k`v`l`l`h`l`h`h`j`7`z.1.2.3.4.5`m.6`h`h`g`l`S`j`b`j`j`g`x`j`u`o`c`o`c",
"`b`d`g`j`j```c`b`d`l`h`h`c`h`m`v`z`g`b`.`k`f`c`j`f`j`d`z`x`f`l`g`s`j`g`l`n`c`Y`l.m.7`s.8.q`z`k`n`l`g`e`c`c`c`j`j`c`c`d`j`o`c`f`b",
"`.`r`g`d`.`d`c`h`h`c`l`e`e`g`I`l`j`j`d`j`c`e`j`c`r`h`d`k`l`k`l`n`g`g`l`g`j`r```e#`#.`c###a`f`k`g`j`c`j`g`j`x`k`j`c`o`.`j`d`d```b",
"`j`e```.```p`d`l`l`j`f```.`e`d`j`l`g`j`h`c`d`j`j`e`g`f`s`f`v`n`h`j`g`g```p`o`p`.`q`i`d`j`d```j`j`j`j`j`d`c`l`g`j`j`j`b`d`e`f`l`l",
"`.```c`#`.```c`k`j`c`d`c```s`c`f.U.1#b#c`j`j`h`h`b`d```.`o`k`l`j`n`h`j`.```t```f`g`s`c`d`r`.`r`s`h`e`Y`r`k`f`c`j`i`j`g`c`s`h`h`g",
"`c`s`s`7`u```e`j`g`j`.`.`.`````j#d#e#f#g`f`B`f```e`p`u```o`p`d`f`v`g`p```h`d`e`b`d`````e`d`j`g`g`b`.`e`j`b`h`s`b`c`j`l`f`k`g`c`d",
"`c`.`Y`r`e`d`c`j`l`d`c```.`p`e`l#h#i#j#k`r```c`f`g```.`j```d`e`e`c`j`d`.`f`h`c`d`#`.`e`.`.`g`c`````e`j`j`j`h.I`h`j`f`h`j`f`m`g`d",
"`#`.`c`c`j`j`c`b`h`c`r`d`c`e`d`j`l`k`h`j`b`h`d`j`f`j`j`e`c`h`j```c`s`g`j`I`b`.`c`u`Y`I`r`.`e`.```r`d`e`j`h`j`c`j`h`k`j`j`l`h`e`c",
"`r`Y`c`e`c`d`d`b`d`````r```c`r`Y.C`e`````c`f`c`f`h`g`c`g`g`d```.`e`g`b`c`g`e`.`.`b`s`c`d`.`c`j```d`j`e`j`l`j`h`j`s`e`j`g`b`b`b`u",
"`h```u`c`h`j`I`g`h`c`c`e`r`.`o`Y`d`c`j`r`o`j`j```c`g`i`o`j`d```c`o`.`o`j`p`Y`````s`e`e`.`.`r`c`c`c`b`e`d```.`d`I`j`d`c`e`d`j```6",
"`h`g`e`f`h`e`d`l`g`f`g`c`o`p`5`p`e```e`b`f`g`c`c`r`e`g`s`e`l`n`g`a`u`.`c`o```d`c`s`j`r`e`c`d`j`c`b`p`c`u`Y`r`l`l`j`c`i`r`c`c`.`5",
"```e`s`f`e`c`j`g`j`c`j`d```c`o`e`e`c`.`e`k`f`g`j```j`b`j`g`x`h`j`f`a`.`d`g`j`j```d`c`s`f`h`h`h`g`b`h`c`.`f`l`g`j`g`b`e`d`d`c`r`o",
"`e```.```j`j`h`j```r`.`e`e`p`a`c```j`l`n`g`h`e```d`g`b`c`k`g`s`s`j`e`j`h`f`h`j`g`j`c`l`f`g`z`n`l`h#l#m`D`d`j`c`b`g`````.```j`d``",
"`a```d`j`c`d`j`c`e`d`e`f`h`d`g`j`e`b`v`j`g`.```b`o`.`g`d`e`c`f`p`s`c`j`k`h`S`k`l`l`g`k`l`h`n`j`##n#o#p#q#r`Y`.`h`.`o`5`Y`e```j`j",
"`c`b`l`f`b`f`h`j`.`.`````h`g`l`j`g`d`g`h`j`j`b`d`j`j`j```d`d`h`j`e`j`b`h`k`g`z`m`g`b`j`j`k`g`.`u`R`1#s#t#u`u`7`c`.`u`5```e`c`c``",
"`k`k`k`h`j`c`j`j`c`.`.`.`d`s`j`j`.`.`c`g`e`g`j`b`h`g`d```c`e`f`g`l`k`j`j`g`j`j`h`e`b`d`c`c`h`c`u```h`h`h`l`j`e`e`d`o`d`d`c`h`c`e",
"`g`n`h`j`c`c```o`D`c.g#v`a```f`l`o`#`c`h`h`j`j`g`c`e`I`c`c`f`l`k`j`s`g`j`g`I`h`g`f`f`j`d`b`c`e`e`c`c`````b```o`s`.`e`.`r`c```d`h",
"`j`g`d```c`e`.#w#x#y#z#A`c`p`g`c```c`f`h`c`g`g`g`c`I`b`c`r`g`j`n`z`m`b```g`l`l`l`v`k`h`g`d`.`j`I`d```````.`d`.`d```.`e`j`d`d`f`5",
"`s`j`d`f`u```j`j#B#C#D#E`f`d`n`o`p```e`b`f`j`s`.`#`g`c`g`l`k`h`g`h`l`l`h`S`v`n`n`n`l`c`s`h`d`c`r`````r`e`j`I`j`c`b```c`l`g`l`l`c",
"`h`j`b`l`#`.`b`c`T#y.C#F```b`f`4`e`.`o`d`j`e`j`g`j`g`I`j`s`c`g`j`j`g`l`y`n`x`g`j`d`c`d`d`h`c`d`r`Y`e`j`k`k`h`g`g`c`c`.`d`g#G`c`l",
"`g`l`g`h`g`g`r`h`c`.`c`c```h`o```c`o`.`b`b`j`k`h`n`n`n`g`f`f`l`k`v`x`g`v`l`l`j`c`d`h`f`k`c`e`e`c`d`e`g`g`g`b`j`j`c`e`b`f`f`d`k`c",
"```f`b```f`k`e`e`d```d`j`d```o`o```c`e```c`k`l`b`.`k`n`n`l`z`n`g`n`n`g`k`g`g`d`e`c`c`.`j`f`k`l```d`h`l`h`s`j`j`h`j```c```o```g`j",
"`j`f`e`h`g`c`c`.`c`j`.```g`e`c`u```g`j`d`j`l`k`k`g`j`g`y`n`n`j`h`k`g`j`f`c`f`h`.`c`r`e`q`c`j`l```g`n`k`j`f`c`g`x`c`j`c`.`c`s`d`j"
};
